<svg width="247" height="29" viewBox="0 0 247 29" fill="none" xmlns="http://www.w3.org/2000/svg">
<path d="M16.0144 22.9963V26.1672C16.0144 27.2493 15.272 27.8281 13.7873 27.9036C12.3276 27.9791 10.7296 28.0168 8.9932 28.0168C7.28197 28.0168 5.31906 27.9539 3.10444 27.8281C2.37467 27.7778 1.78324 27.5261 1.33026 27.0731C0.902478 26.6201 0.650778 26.1042 0.575281 25.5254C0.373993 23.3108 0.273293 19.838 0.273293 15.1068C0.273293 10.3505 0.348793 6.89021 0.499787 4.72599C0.650781 2.56178 1.74549 1.46708 3.78391 1.44187C6.12432 1.39158 8.62827 1.36637 11.2959 1.36637C13.9635 1.36637 16.8449 1.40412 19.9403 1.47962C23.0609 1.55512 25.6026 2.72532 27.5655 4.99023C29.5284 7.25515 30.5099 9.74655 30.5099 12.4644C30.5099 15.1823 29.6417 17.422 27.9052 19.1837C26.1688 20.9453 23.6271 21.8261 20.28 21.8261H17.3356C17.0084 21.8261 16.7065 21.9393 16.4297 22.1658C16.1529 22.3923 16.0144 22.6691 16.0144 22.9963ZM15.9767 9.33132L16.0522 16.3148C16.0522 16.793 16.3164 17.032 16.8449 17.032C18.4051 17.032 19.6258 16.6042 20.5065 15.7486C21.4125 14.8678 21.8655 13.8359 21.8655 12.6532C21.8655 11.4704 21.4377 10.4512 20.582 9.59556C19.7515 8.73988 18.5184 8.31211 16.8827 8.31211C16.2787 8.31211 15.9767 8.65184 15.9767 9.33132ZM45.2524 18.4287C45.2524 21.2473 45.9949 22.6565 47.48 22.6565C48.9651 22.6565 49.7076 21.2473 49.7076 18.4287C49.7076 17.1453 49.5562 16.1638 49.2544 15.4843C48.9526 14.7796 48.3604 14.4274 47.48 14.4274C46.5996 14.4274 46.0073 14.7796 45.7056 15.4843C45.4038 16.1638 45.2524 17.1453 45.2524 18.4287ZM61.56 18.4287C61.56 25.2737 56.8663 28.6963 47.48 28.6963C38.0926 28.6963 33.4 25.2737 33.4 18.4287C33.4 15.1823 34.5946 12.6657 36.9861 10.879C39.3765 9.09228 42.8744 8.19886 47.48 8.19886C52.0855 8.19886 55.5835 9.09228 57.9739 10.879C60.3642 12.6657 61.56 15.1823 61.56 18.4287ZM87.4618 27.9036L83.3095 27.8658C82.3533 27.8658 81.6865 27.5764 81.309 26.9976L77.7986 21.4108C77.5974 21.2599 77.4709 21.2096 77.4211 21.2599C77.3963 21.2851 77.3703 21.7128 77.3454 22.5433C77.3454 23.3486 77.2821 24.5817 77.1567 26.2427C77.1069 26.6453 76.9046 27.0102 76.5531 27.3374C76.2005 27.6646 75.597 27.8533 74.7403 27.9036C73.9107 27.9539 72.8913 27.9791 71.6831 27.9791C70.5009 27.9791 69.1797 27.9413 67.7195 27.8658C67.116 27.8406 66.6379 27.6771 66.2853 27.3751C65.9576 27.0479 65.7688 26.6704 65.7191 26.2427C65.4671 23.1725 65.3416 19.0704 65.3416 13.9366C65.3416 8.80284 65.4422 5.06573 65.6434 2.72532C65.7191 1.86965 65.883 1.25313 66.1339 0.875644C66.4108 0.472956 66.9646 0.271667 67.7953 0.271667H75.0432C75.8728 0.271667 76.4266 0.472956 76.7035 0.875644C76.9804 1.25313 77.1567 1.86965 77.2324 2.72532C77.3827 4.91474 77.4584 8.58889 77.4584 13.7479C77.4584 14.3267 77.559 14.6161 77.7602 14.6161C77.8868 14.6161 78.0247 14.5406 78.1761 14.3896L83.1207 9.8598C83.549 9.48231 83.9017 9.24327 84.1774 9.14257C84.4543 9.01678 84.8454 8.95383 85.3483 8.95383H90.8592C91.1869 8.95383 91.4254 9.16778 91.5768 9.59556C91.6266 9.69626 91.6526 9.84725 91.6526 10.0485C91.6526 10.2498 91.526 10.4763 91.2751 10.728L86.0276 15.3333C85.8264 15.5346 85.8264 15.7486 86.0276 15.9751C88.4179 18.7937 90.9598 22.0903 93.653 25.8652C93.9299 26.2427 94.0678 26.5824 94.0678 26.8844C94.0678 27.5136 93.6021 27.8281 92.6709 27.8281L87.4618 27.9036ZM108.17 5.32997L110.134 1.63061C110.561 0.976345 111.153 0.649152 111.908 0.649152H116.438C116.992 0.649152 117.343 0.762399 117.494 0.98889C117.671 1.21538 117.671 1.47962 117.494 1.78161C117.343 2.0836 117.117 2.36038 116.815 2.61208C116.512 2.86377 116.098 3.20351 115.569 3.63129C114.436 4.61275 113.492 5.40547 112.737 6.00944C112.386 6.28623 111.958 6.42468 111.455 6.42468H108.85C108.447 6.42468 108.17 6.32398 108.019 6.12269C107.893 5.9214 107.944 5.65716 108.17 5.32997ZM102.66 9.82205C103.817 9.24327 104.999 8.82804 106.207 8.57635C107.44 8.32465 108.95 8.19886 110.737 8.19886C112.549 8.19886 114.273 8.42535 115.909 8.87833C117.544 9.30611 118.765 9.89754 119.571 10.6525C120.98 12.0367 121.684 13.6599 121.684 15.5221C121.684 18.4413 119.218 19.9009 114.286 19.9009C112.549 19.9009 110.749 19.7374 108.888 19.4102C108.963 21.0711 109.266 22.2413 109.793 22.9208C110.347 23.6003 111.316 23.94 112.7 23.94C114.085 23.94 115.23 23.789 116.135 23.487C117.041 23.185 117.771 22.883 118.325 22.5811C118.879 22.2539 119.343 22.0903 119.721 22.0903C120.124 22.0903 120.464 22.2665 120.74 22.6188C121.169 23.0718 121.382 23.701 121.382 24.5062C121.382 25.2864 121.218 25.8274 120.892 26.1294C120.59 26.4062 120.098 26.6831 119.419 26.9599C117.029 27.9665 113.631 28.4698 109.227 28.4698C105.579 28.4698 102.571 27.6016 100.206 25.8652C97.8652 24.1035 96.6944 21.738 96.6944 18.7685C96.6944 17.334 96.9588 16.0254 97.4878 14.8426C98.0156 13.6347 98.7208 12.6406 99.6012 11.8605C100.483 11.0552 101.501 10.3757 102.66 9.82205ZM111.416 12.5022C109.881 12.5022 109.051 13.7479 108.925 16.2393C110.134 16.34 110.763 16.3903 110.813 16.3903C112.474 16.3903 113.304 15.8366 113.304 14.7294C113.304 13.2446 112.675 12.5022 111.416 12.5022ZM141.057 22.9963V26.1672C141.057 27.2493 140.314 27.8281 138.829 27.9036C137.37 27.9791 135.772 28.0168 134.035 28.0168C132.324 28.0168 130.361 27.9539 128.147 27.8281C127.416 27.7778 126.825 27.5261 126.372 27.0731C125.945 26.6201 125.693 26.1042 125.617 25.5254C125.416 23.3108 125.315 19.838 125.315 15.1068C125.315 10.3505 125.391 6.89021 125.541 4.72599C125.693 2.56178 126.788 1.46708 128.826 1.44187C131.166 1.39158 133.67 1.36637 136.338 1.36637C139.006 1.36637 141.887 1.40412 144.982 1.47962C148.102 1.55512 150.644 2.72532 152.607 4.99023C154.571 7.25515 155.552 9.74655 155.552 12.4644C155.552 15.1823 154.684 17.422 152.948 19.1837C151.21 20.9453 148.669 21.8261 145.322 21.8261H142.378C142.05 21.8261 141.748 21.9393 141.472 22.1658C141.195 22.3923 141.057 22.6691 141.057 22.9963ZM141.018 9.33132L141.094 16.3148C141.094 16.793 141.359 17.032 141.887 17.032C143.447 17.032 144.668 16.6042 145.548 15.7486C146.455 14.8678 146.908 13.8359 146.908 12.6532C146.908 11.4704 146.479 10.4512 145.624 9.59556C144.793 8.73988 143.56 8.31211 141.925 8.31211C141.321 8.31211 141.018 8.65184 141.018 9.33132ZM170.295 18.4287C170.295 21.2473 171.037 22.6565 172.521 22.6565C174.007 22.6565 174.749 21.2473 174.749 18.4287C174.749 17.1453 174.598 16.1638 174.296 15.4843C173.994 14.7796 173.403 14.4274 172.521 14.4274C171.641 14.4274 171.05 14.7796 170.748 15.4843C170.445 16.1638 170.295 17.1453 170.295 18.4287ZM186.603 18.4287C186.603 25.2737 181.909 28.6963 172.521 28.6963C163.135 28.6963 158.441 25.2737 158.441 18.4287C158.441 15.1823 159.637 12.6657 162.028 10.879C164.419 9.09228 167.917 8.19886 172.521 8.19886C177.127 8.19886 180.625 9.09228 183.016 10.879C185.407 12.6657 186.603 15.1823 186.603 18.4287ZM212.504 27.9036L208.352 27.8658C207.396 27.8658 206.729 27.5764 206.352 26.9976L202.84 21.4108C202.639 21.2599 202.513 21.2096 202.463 21.2599C202.438 21.2851 202.413 21.7128 202.388 22.5433C202.388 23.3486 202.325 24.5817 202.199 26.2427C202.148 26.6453 201.947 27.0102 201.595 27.3374C201.242 27.6646 200.638 27.8533 199.783 27.9036C198.952 27.9539 197.933 27.9791 196.726 27.9791C195.542 27.9791 194.221 27.9413 192.762 27.8658C192.157 27.8406 191.679 27.6771 191.327 27.3751C191 27.0479 190.811 26.6704 190.761 26.2427C190.51 23.1725 190.383 19.0704 190.383 13.9366C190.383 8.80284 190.484 5.06573 190.686 2.72532C190.761 1.86965 190.924 1.25313 191.176 0.875644C191.453 0.472956 192.007 0.271667 192.837 0.271667H200.085C200.915 0.271667 201.469 0.472956 201.746 0.875644C202.023 1.25313 202.199 1.86965 202.274 2.72532C202.425 4.91474 202.501 8.58889 202.501 13.7479C202.501 14.3267 202.602 14.6161 202.803 14.6161C202.928 14.6161 203.067 14.5406 203.218 14.3896L208.163 9.8598C208.591 9.48231 208.943 9.24327 209.22 9.14257C209.497 9.01678 209.887 8.95383 210.39 8.95383H215.902C216.228 8.95383 216.468 9.16778 216.618 9.59556C216.669 9.69626 216.694 9.84725 216.694 10.0485C216.694 10.2498 216.569 10.4763 216.317 10.728L211.07 15.3333C210.868 15.5346 210.868 15.7486 211.07 15.9751C213.461 18.7937 216.002 22.0903 218.694 25.8652C218.971 26.2427 219.11 26.5824 219.11 26.8844C219.11 27.5136 218.645 27.8281 217.713 27.8281L212.504 27.9036ZM233.213 5.32997L235.175 1.63061C235.603 0.976345 236.194 0.649152 236.949 0.649152H241.479C242.033 0.649152 242.386 0.762399 242.536 0.98889C242.712 1.21538 242.712 1.47962 242.536 1.78161C242.386 2.0836 242.158 2.36038 241.857 2.61208C241.555 2.86377 241.14 3.20351 240.611 3.63129C239.479 4.61275 238.535 5.40547 237.78 6.00944C237.427 6.28623 237 6.42468 236.496 6.42468H233.892C233.489 6.42468 233.213 6.32398 233.061 6.12269C232.936 5.9214 232.986 5.65716 233.213 5.32997ZM227.701 9.82205C228.858 9.24327 230.042 8.82804 231.25 8.57635C232.483 8.32465 233.993 8.19886 235.78 8.19886C237.591 8.19886 239.315 8.42535 240.951 8.87833C242.587 9.30611 243.807 9.89754 244.612 10.6525C246.021 12.0367 246.727 13.6599 246.727 15.5221C246.727 18.4413 244.261 19.9009 239.327 19.9009C237.591 19.9009 235.792 19.7374 233.929 19.4102C234.005 21.0711 234.307 22.2413 234.836 22.9208C235.39 23.6003 236.358 23.94 237.743 23.94C239.126 23.94 240.271 23.789 241.177 23.487C242.084 23.185 242.813 22.883 243.367 22.5811C243.92 22.2539 244.386 22.0903 244.764 22.0903C245.166 22.0903 245.506 22.2665 245.783 22.6188C246.21 23.0718 246.425 23.701 246.425 24.5062C246.425 25.2864 246.261 25.8274 245.933 26.1294C245.632 26.4062 245.141 26.6831 244.462 26.9599C242.07 27.9665 238.673 28.4698 234.27 28.4698C230.62 28.4698 227.613 27.6016 225.247 25.8652C222.907 24.1035 221.737 21.738 221.737 18.7685C221.737 17.334 222.001 16.0254 222.529 14.8426C223.058 13.6347 223.762 12.6406 224.644 11.8605C225.524 11.0552 226.544 10.3757 227.701 9.82205ZM236.459 12.5022C234.924 12.5022 234.093 13.7479 233.968 16.2393C235.175 16.34 235.804 16.3903 235.855 16.3903C237.516 16.3903 238.346 15.8366 238.346 14.7294C238.346 13.2446 237.717 12.5022 236.459 12.5022Z" fill="#D13415"/>
</svg>
