<svg width="129" height="91" viewBox="0 0 129 91" fill="none" xmlns="http://www.w3.org/2000/svg">
<mask id="mask0_103_502" style="mask-type:luminance" maskUnits="userSpaceOnUse" x="0" y="0" width="129" height="91">
<path d="M128.5 0.30365H0.5V90.2717H128.5V0.30365Z" fill="white"/>
</mask>
<g mask="url(#mask0_103_502)">
<mask id="mask1_103_502" style="mask-type:luminance" maskUnits="userSpaceOnUse" x="1" y="9" width="66" height="81">
<path d="M42.129 9.8081L3.72454 22.6218C2.0106 23.1938 1.08476 25.0467 1.65662 26.7606L21.7831 87.0827C22.355 88.7966 24.208 89.7225 25.9221 89.1506L64.3264 76.3369C66.0402 75.7649 66.9661 73.912 66.3944 72.1981L46.2677 11.876C45.6958 10.1621 43.8429 9.23625 42.129 9.8081Z" fill="white"/>
</mask>
<g mask="url(#mask1_103_502)">
<path d="M42.129 9.8081L3.72454 22.6218C2.0106 23.1938 1.08476 25.0467 1.65662 26.7606L21.7831 87.0827C22.355 88.7966 24.208 89.7225 25.9221 89.1506L64.3264 76.3369C66.0402 75.7649 66.9661 73.912 66.3944 72.1981L46.2677 11.876C45.6958 10.1621 43.8429 9.23625 42.129 9.8081Z" fill="white"/>
<mask id="mask2_103_502" style="mask-type:luminance" maskUnits="userSpaceOnUse" x="6" y="14" width="56" height="71">
<path d="M41.0956 14.4639L7.34644 25.7244C6.48948 26.0102 6.02655 26.9369 6.31249 27.7939L24.8859 83.4608C25.1717 84.3177 26.0984 84.7806 26.9553 84.4946L60.7046 73.2341C61.5615 72.9482 62.0245 72.0217 61.7386 71.1648L43.1651 15.4978C42.8793 14.6409 41.9526 14.1779 41.0956 14.4639Z" fill="white"/>
</mask>
<g mask="url(#mask2_103_502)">
<path d="M41.0956 14.4639L7.34644 25.7244C6.48948 26.0102 6.02655 26.9369 6.31249 27.7939L24.8859 83.4608C25.1717 84.3177 26.0984 84.7806 26.9553 84.4946L60.7046 73.2341C61.5615 72.9482 62.0245 72.0217 61.7386 71.1648L43.1651 15.4978C42.8793 14.6409 41.9526 14.1779 41.0956 14.4639Z" fill="#E54D2E"/>
<path d="M26.9919 73.0175C34.7833 75.3417 44.2398 66.6987 48.1133 53.7128C51.9869 40.7269 48.8108 28.3156 41.0191 25.9916C33.2277 23.6674 23.7712 32.3104 19.8978 45.2963C16.0242 58.2822 19.2003 70.6934 26.9919 73.0175Z" fill="white" fill-opacity="0.923"/>
</g>
</g>
<path d="M42.1936 10.0021L3.78927 22.8157C2.18244 23.3518 1.31446 25.089 1.85058 26.696L21.9772 87.0179C22.5133 88.6246 24.2505 89.4926 25.8572 88.9565L64.2617 76.1428C65.8685 75.6067 66.7365 73.8695 66.2003 72.2627L46.0737 11.9408C45.5375 10.3339 43.8003 9.46594 42.1936 10.0021Z" stroke="#D7DBDF" stroke-width="0.137973"/>
<mask id="mask3_103_502" style="mask-type:luminance" maskUnits="userSpaceOnUse" x="64" y="9" width="64" height="80">
<path d="M125.395 21.313L86.4981 10.083C84.7622 9.58176 82.9487 10.5827 82.4475 12.3187L64.8083 73.4143C64.3071 75.1503 65.308 76.9638 67.044 77.4649L105.941 88.6952C107.677 89.1963 109.49 88.1952 109.991 86.4595L127.631 25.3638C128.132 23.6278 127.131 21.8142 125.395 21.313Z" fill="white"/>
</mask>
<g mask="url(#mask3_103_502)">
<path d="M125.395 21.313L86.4981 10.083C84.7622 9.58176 82.9487 10.5827 82.4475 12.3187L64.8083 73.4143C64.3071 75.1503 65.308 76.9638 67.044 77.4649L105.941 88.6952C107.677 89.1963 109.49 88.1952 109.991 86.4595L127.631 25.3638C128.132 23.6278 127.131 21.8142 125.395 21.313Z" fill="white"/>
<mask id="mask4_103_502" style="mask-type:luminance" maskUnits="userSpaceOnUse" x="69" y="14" width="55" height="71">
<path d="M121.903 24.5616L87.7213 14.6927C86.8533 14.4421 85.9464 14.9425 85.696 15.8105L69.4179 72.1915C69.1674 73.0594 69.6677 73.9661 70.5357 74.2168L104.718 84.0856C105.586 84.3361 106.493 83.8358 106.743 82.9678L123.021 26.5869C123.272 25.7189 122.771 24.8122 121.903 24.5616Z" fill="white"/>
</mask>
<g mask="url(#mask4_103_502)">
<path d="M121.903 24.5616L87.7213 14.6927C86.8533 14.4421 85.9464 14.9425 85.696 15.8105L69.4179 72.1915C69.1674 73.0594 69.6677 73.9661 70.5357 74.2168L104.718 84.0856C105.586 84.3361 106.493 83.8358 106.743 82.9678L123.021 26.5869C123.272 25.7189 122.771 24.8122 121.903 24.5616Z" fill="#30A46C"/>
<path d="M77.0761 64.7848C82.1748 71.1183 94.8652 69.364 105.421 60.8663C115.977 52.3684 120.401 40.3454 115.302 34.0118C110.204 27.6785 97.5132 29.4329 86.9572 37.9306C76.4015 46.4282 71.9776 58.4514 77.0761 64.7848Z" fill="white" fill-opacity="0.923"/>
</g>
</g>
<path d="M125.338 21.5096L86.4411 10.2795C84.8137 9.80966 83.1135 10.7481 82.6436 12.3755L65.0044 73.4712C64.5347 75.0986 65.473 76.7988 67.1004 77.2687L105.997 88.4988C107.625 88.9686 109.325 88.0303 109.795 86.4027L127.434 25.307C127.904 23.6796 126.966 21.9795 125.338 21.5096Z" stroke="#D7DBDF" stroke-width="0.137973"/>
<mask id="mask5_103_502" style="mask-type:luminance" maskUnits="userSpaceOnUse" x="36" y="0" width="53" height="74">
<path d="M85.0919 3.67006L44.7202 0.634666C42.9184 0.4992 41.348 1.84999 41.2124 3.65174L36.4447 67.0639C36.3094 68.8655 37.6601 70.4361 39.4619 70.5714L79.8335 73.6068C81.6353 73.7424 83.2056 72.3914 83.3412 70.5898L88.1089 7.17769C88.2445 5.37594 86.8935 3.80552 85.0919 3.67006Z" fill="white"/>
</mask>
<g mask="url(#mask5_103_502)">
<path d="M85.0919 3.67006L44.7202 0.634666C42.9184 0.4992 41.348 1.84999 41.2124 3.65174L36.4447 67.0639C36.3094 68.8655 37.6601 70.4361 39.4619 70.5714L79.8335 73.6068C81.6353 73.7424 83.2056 72.3914 83.3412 70.5898L88.1089 7.17769C88.2445 5.37594 86.8935 3.80552 85.0919 3.67006Z" fill="white"/>
<mask id="mask6_103_502" style="mask-type:luminance" maskUnits="userSpaceOnUse" x="40" y="4" width="44" height="66">
<path d="M82.3383 7.56416L46.8602 4.89671C45.9593 4.82897 45.1739 5.50436 45.1062 6.40525L40.7066 64.9238C40.6387 65.8247 41.3141 66.6099 42.215 66.6775L77.6933 69.3451C78.594 69.4128 79.3793 68.7374 79.447 67.8365L83.8467 9.31799C83.9145 8.41712 83.2392 7.6319 82.3383 7.56416Z" fill="white"/>
</mask>
<g mask="url(#mask6_103_502)">
<path d="M82.3383 7.56416L46.8602 4.89671C45.9593 4.82897 45.1739 5.50436 45.1062 6.40525L40.7066 64.9238C40.6387 65.8247 41.3141 66.6099 42.215 66.6775L77.6933 69.3451C78.594 69.4128 79.3793 68.7374 79.447 67.8365L83.8467 9.31799C83.9145 8.41712 83.2392 7.6319 82.3383 7.56416Z" fill="#3E63DD"/>
<path d="M46.6874 56.1075C52.9739 61.2639 65.037 56.9505 73.6312 46.4729C82.2254 35.9955 84.0963 23.3217 77.8098 18.1652C71.5233 13.0087 59.4602 17.3222 50.866 27.7996C42.2718 38.277 40.4009 50.9509 46.6874 56.1075Z" fill="white" fill-opacity="0.923"/>
</g>
</g>
<path d="M85.0763 3.87394L44.7048 0.838549C43.0156 0.711549 41.5432 1.97791 41.4162 3.66706L36.6485 67.0792C36.5216 68.7683 37.7879 70.2405 39.477 70.3675L79.8488 73.4029C81.5379 73.5299 83.0101 72.2636 83.1373 70.5744L87.905 7.16236C88.032 5.47321 86.7655 4.00094 85.0763 3.87394Z" stroke="#D7DBDF" stroke-width="0.137973"/>
<mask id="mask7_103_502" style="mask-type:luminance" maskUnits="userSpaceOnUse" x="38" y="27" width="44" height="35">
<path d="M81.3803 32.5244L42.4117 27.576L38.7798 56.177L77.7484 61.1254L81.3803 32.5244Z" fill="white"/>
</mask>
<g mask="url(#mask7_103_502)">
<path d="M52.5803 44.8412C52.5803 44.8412 47.7854 48.0674 46.4207 49.0269C45.3648 49.7675 46.7327 51.6101 47.7259 50.9756C50.364 49.2854 52.8127 48.095 52.8127 48.095L53.0277 48.5047C52.0192 48.9511 49.4097 50.1233 48.0095 51.0944C46.954 51.8256 48.2356 53.7065 49.2923 52.977C50.7447 51.9732 53.9971 50.255 53.9971 50.255L54.2257 50.5634C53.391 50.951 52.0656 51.6996 50.2988 52.9426C49.2351 53.691 50.5159 54.7771 51.4215 54.2005C53.8864 52.6332 54.1326 51.3579 56.7198 50.6198C60.6678 49.4938 52.5803 44.8412 52.5803 44.8412Z" fill="#EF9645"/>
<path d="M62.7006 39.4629C63.3708 39.2296 80.1493 31.594 80.8576 32.5084C80.6531 34.5531 77.8927 40.4829 77.177 41.5052C75.9696 42.8977 65.6374 46.3983 64.9453 46.6375C64.2521 46.879 63.2508 47.1888 62.5045 48.1541C62.0994 48.68 60.5274 50.0023 56.5791 51.1312C53.9939 51.8659 51.8097 53.389 50.9471 53.9061C50.2496 54.3251 49.0921 53.2074 50.1541 52.4603C51.922 51.216 53.2474 50.4675 54.081 50.081L53.8526 49.7712C53.8526 49.7712 50.44 51.56 48.9663 52.532C47.9654 53.1937 46.9504 51.5831 48.0067 50.8527C49.4076 49.8817 51.8739 48.4685 52.8824 48.0222L52.6685 47.6104C52.6685 47.6104 50.0114 48.8953 47.3715 50.5879C46.4904 51.1523 45.4394 49.4999 46.4949 48.7577C47.8599 47.8003 50.4983 46.1081 52.0702 45.4673L51.9854 45.0136C51.9854 45.0136 49.5186 46.0128 47.2864 47.6846C46.4877 48.2821 45.2325 46.8291 46.4035 45.9053C49.2009 43.6994 52.6078 42.6147 53.5367 42.1479C54.784 41.5212 55.45 41.1155 54.8797 40.7675C54.0201 40.2418 52.6843 38.6113 52.2496 37.3724C51.6875 35.7698 52.9071 34.7147 53.9473 36.0566C54.6051 36.9058 55.9209 38.6036 57.4266 38.7947C59.4509 39.0518 59.665 39.8447 61.0977 40.0265C61.852 40.1209 62.7006 39.4629 62.7006 39.4629Z" fill="#FFCC4D"/>
<path d="M58.5969 43.5452C58.3577 43.5156 57.5807 43.3072 56.7422 42.7825C56.0191 42.3317 55.5051 41.6148 55.0784 41.0139C55.0917 41.1327 54.9996 41.2613 54.8232 41.4032C55.2385 42.0317 55.902 42.7733 56.5273 43.18C57.2538 43.654 58.1121 43.9556 58.5121 43.9898C58.9235 44.0245 58.8441 43.5796 58.5969 43.5452ZM59.3678 49.8821C57.8435 48.9221 56.6369 48.1289 58.7309 49.3212C59.597 49.8129 61.2036 48.1373 59.9368 47.3533C57.3875 45.7746 49.5476 40.0933 49.5476 40.0933C49.5476 40.0933 44.3149 44.8365 44.8355 45.2495C45.3571 45.6603 45.2858 48.1054 48.2698 50.6431C51.0901 53.043 52.8962 54.15 53.5704 54.6015C54.9825 55.5464 56.2109 53.7165 55.1013 53.042C53.189 51.8785 53.2667 51.8325 56.0811 53.4442C57.1229 54.0418 58.3101 52.0912 57.2143 51.4205C55.5801 50.421 55.4362 50.3069 58.053 51.9102C59.0214 52.5007 60.4578 50.5693 59.3678 49.8821Z" fill="#EF9645"/>
<path d="M46.2812 37.6993C45.725 37.2587 44.902 37.338 44.447 37.9136C43.9923 38.4892 41.9979 41.0077 41.5724 41.5477C41.146 42.0869 41.1229 43.0023 41.6977 43.4571C42.2725 43.9126 43.3147 44.7365 43.8361 45.1481C44.3573 45.5611 46.2996 48.7161 49.373 51.1438C52.444 53.5756 53.6299 54.0737 54.3411 54.463C55.0551 54.8517 56.238 53.4801 55.1281 52.8062C53.2132 51.6409 51.889 50.622 51.2268 49.9804L51.5073 49.5906C51.5073 49.5906 53.3449 51.3655 56.1576 52.979C57.1992 53.5766 58.3134 51.9775 57.2186 51.3054C55.5837 50.3059 53.6089 48.7427 52.8036 47.989L53.1032 47.6118C53.1032 47.6118 55.7002 49.755 58.3171 51.3583C59.2826 51.9501 60.3628 50.3196 59.273 49.6313C57.7515 48.6717 55.643 47.0219 54.3705 45.8989L54.6578 45.5719C54.6578 45.5719 57.0129 47.7259 59.1086 48.9169C59.9743 49.4107 61.267 47.8377 59.999 47.0515C57.4517 45.4736 54.6596 42.9238 53.937 42.1777C53.3471 41.5669 53.3114 40.3438 54.9768 40.0135C57.3323 39.5469 58.2772 38.1363 58.3729 37.3828C58.5082 36.3173 57.5832 35.7221 56.963 36.4381C55.1682 38.5064 54.5081 37.6402 52.9098 38.2197C50.9936 38.9151 48.7565 39.6279 47.6248 38.7323C47.1402 38.3502 46.2812 37.6993 46.2812 37.6993Z" fill="#FFDC5D"/>
<path d="M54.5448 40.5252L58.674 39.0775C58.3419 38.9611 57.9454 38.8599 57.4281 38.7941C55.9226 38.6029 54.6068 36.9054 53.949 36.056C52.9087 34.714 51.6892 35.7691 52.2513 37.3718C52.633 38.4588 53.7063 39.8457 54.5448 40.5252Z" fill="#FFCC4D"/>
</g>
</g>
</svg>
